<?xml version="1.0" encoding="iso-8859-1"?>
<!-- Generator: Adobe Illustrator 19.0.0, SVG Export Plug-In . SVG Version: 6.00 Build 0)  -->
<svg xmlns="http://www.w3.org/2000/svg" xmlns:xlink="http://www.w3.org/1999/xlink" version="1.1" id="Capa_1" x="0px" y="0px" viewBox="0 0 512 512" style="enable-background:new 0 0 512 512;" xml:space="preserve" width="36px" height="36px">
<g>
	<g>
		<path d="M276.114,89.378h-40.225c-4.142,0-7.5,3.358-7.5,7.5v30.372c0,4.142,3.358,7.5,7.5,7.5h40.225c4.142,0,7.5-3.358,7.5-7.5    V96.878C283.614,92.736,280.256,89.378,276.114,89.378z M268.614,119.75h-25.225v-15.372h25.225V119.75z" fill="#FFFFFF"/>
	</g>
</g>
<g>
	<g>
		<circle cx="234.071" cy="321.82" r="8.839" fill="#FFFFFF"/>
	</g>
</g>
<g>
	<g>
		<path d="M179.454,237.691h-66.738c-4.142,0-7.5,3.358-7.5,7.5v102.245v23.305c0,4.142,3.358,7.5,7.5,7.5h66.738    c4.142,0,7.5-3.358,7.5-7.5v-23.305V245.191C186.954,241.049,183.597,237.691,179.454,237.691z M120.217,252.691h18.369v36.122    h-18.369V252.691z M120.217,303.813h18.369v36.123h-18.369V303.813z M171.954,363.241h-51.738v-8.305h51.738V363.241z     M171.954,339.936h-18.369v-36.123h18.369V339.936z M171.954,288.813h-18.369v-36.122h18.369V288.813z" fill="#FFFFFF"/>
	</g>
</g>
<g>
	<g>
		<path d="M399.285,237.691h-66.738c-4.142,0-7.5,3.358-7.5,7.5v102.245v23.305c0,4.142,3.358,7.5,7.5,7.5h66.738    c4.142,0,7.5-3.358,7.5-7.5v-23.305V245.191C406.785,241.049,403.427,237.691,399.285,237.691z M340.047,252.691h18.369v36.122    h-18.369V252.691z M340.047,303.813h18.369v36.123h-18.369V303.813z M391.785,363.241h-51.738v-8.305h51.738V363.241z     M391.785,339.936h-18.369v-36.123h18.369V339.936z M391.785,288.813h-18.369v-36.122h18.369V288.813z" fill="#FFFFFF"/>
	</g>
</g>
<g>
	<g>
		<path d="M491.298,390.952h-24.404V210.478h24.404c2.347,0,4.56-1.099,5.977-2.97c1.418-1.871,1.878-4.298,1.244-6.558    l-24.437-87.036c0.483-1.072,0.717-2.251,0.658-3.448c-0.098-1.987-0.981-3.854-2.455-5.189l-53.42-48.397    c-3.735-3.384-8.567-5.249-13.608-5.249c-5.04,0-9.873,1.864-13.608,5.248l-19.76,17.902h-25.107    c-0.403-1.117-1.075-2.155-2.016-3.008l-72.15-65.368C268.054,2.275,262.154,0,256.001,0c-6.154,0-12.054,2.275-16.613,6.407    l-72.151,65.368c-0.917,0.83-1.604,1.866-2.017,3.008h-25.106l-19.76-17.903c-3.736-3.384-8.568-5.248-13.608-5.248    c-5.041,0-9.873,1.864-13.607,5.248l-53.42,48.397c-1.474,1.335-2.357,3.202-2.455,5.189c-0.059,1.196,0.174,2.375,0.658,3.448    l-24.44,87.036c-0.635,2.26-0.174,4.687,1.243,6.558c1.418,1.871,3.63,2.97,5.978,2.97h24.404v180.475H20.701    c-4.142,0-7.5,3.358-7.5,7.5v27.122c0,4.142,3.358,7.5,7.5,7.5c4.142,0,7.5-3.358,7.5-7.5v-19.622h141.94v20.349h-13.241    c-4.142,0-7.5,3.358-7.5,7.5v27.849h-12.823c-4.142,0-7.5,3.358-7.5,7.5V497H28.201v-41.426c0-4.142-3.358-7.5-7.5-7.5    c-4.142,0-7.5,3.358-7.5,7.5V504.5c0,4.142,3.358,7.5,7.5,7.5h470.597c4.142,0,7.5-3.358,7.5-7.5V398.452    C498.798,394.31,495.441,390.952,491.298,390.952z M401.72,67.997c1.977-1.79,5.102-1.787,7.074,0l47.862,43.362l-7.073,7.807    l-39.29-35.596c-2.858-2.589-7.214-2.589-10.071,0l-39.289,35.595l-7.074-7.808L401.72,67.997z M442.605,133.085v24.708H367.91    v-24.708l37.347-33.836L442.605,133.085z M249.459,17.522c1.796-1.626,4.118-2.522,6.542-2.522c2.424,0,4.748,0.896,6.543,2.523    l66.592,60.332l-13.085,14.443l-55.014-49.842c-1.429-1.294-3.233-1.942-5.036-1.942c-1.803,0-3.607,0.647-5.036,1.942    l-55.014,49.842l-13.085-14.443L249.459,17.522z M309.074,106.217v40.623H202.928v-40.623l53.073-48.083L309.074,106.217z     M103.209,67.996c0.97-0.879,2.226-1.364,3.536-1.364s2.566,0.485,3.537,1.364l47.862,43.362l-7.074,7.808l-39.289-35.595    c-2.858-2.589-7.214-2.589-10.071,0l-39.29,35.596l-7.073-7.807L103.209,67.996z M144.092,133.085v24.708H69.396v-24.708    l37.348-33.836L144.092,133.085z M30.597,195.477l19.097-68.015l4.702,5.189v32.642c0,4.142,3.358,7.5,7.5,7.5h89.695    c4.142,0,7.5-3.358,7.5-7.5v-32.642l15.203-16.78c1.335-1.475,2.031-3.418,1.933-5.405c-0.098-1.987-0.981-3.853-2.455-5.188    L156.67,89.783h16.762l14.497,16.001v48.556c0,4.142,3.358,7.5,7.5,7.5h121.145c4.142,0,7.5-3.358,7.5-7.5v-48.556l14.497-16.001    h16.762l-17.103,15.495c-1.474,1.335-2.357,3.202-2.455,5.188c-0.098,1.987,0.597,3.931,1.933,5.405l15.203,16.78v32.642    c0,4.142,3.358,7.5,7.5,7.5h89.695c4.142,0,7.5-3.358,7.5-7.5v-32.642l4.702-5.189l19.097,68.015H30.597z M451.896,210.478    v180.475h-16.948V210.478H451.896z M77.053,390.953H60.105V210.478h16.948V390.953z M92.053,390.952V210.478h327.893v180.475    H311.884V245.191c0-4.142-3.358-7.5-7.5-7.5h-96.765c-4.142,0-7.5,3.358-7.5,7.5v145.761H92.053z M326.859,405.952v20.349H185.143    v-20.349H326.859z M215.118,390.952V252.691h81.765v138.261H215.118z M164.402,441.301h13.241h156.716h13.242v20.349H164.402    V441.301z M367.924,497H144.079v-20.35h12.823h198.199h12.823V497z M483.798,497H382.923v-27.85c0-4.142-3.358-7.5-7.5-7.5H362.6    v-27.849c0-4.142-3.358-7.5-7.5-7.5h-13.242v-20.349h141.941V497z" fill="#FFFFFF"/>
	</g>
</g>
<g>
</g>
<g>
</g>
<g>
</g>
<g>
</g>
<g>
</g>
<g>
</g>
<g>
</g>
<g>
</g>
<g>
</g>
<g>
</g>
<g>
</g>
<g>
</g>
<g>
</g>
<g>
</g>
<g>
</g>
</svg>
