<?xml version="1.0" encoding="iso-8859-1"?>
<!-- Generator: Adobe Illustrator 19.0.0, SVG Export Plug-In . SVG Version: 6.00 Build 0)  -->
<svg version="1.1" id="Layer_1" xmlns="http://www.w3.org/2000/svg" xmlns:xlink="http://www.w3.org/1999/xlink" x="0px" y="0px"
	 viewBox="0 0 503.607 503.607" width="80px" height="80px" style="enable-background:new 0 0 503.607 503.607;" xml:space="preserve">
<g>
	<g fill="#a3a4a4">
		<path d="M415.924,261.99c32.977-31.401,32.977-82.492,0.001-113.902L365.114,97.25V82.497c9.78-3.456,16.787-12.776,16.787-23.743
			c0-13.91-11.27-25.18-25.18-25.18H255.999V0h-67.148v33.574H88.13c-13.91,0-25.18,11.27-25.18,25.18
			c0,10.966,7.007,20.286,16.787,23.743v78.417c-9.779,3.457-16.784,12.777-16.784,23.742s7.005,20.285,16.784,23.742v120.384
			c-9.78,3.456-16.787,12.776-16.787,23.743s7.007,20.287,16.787,23.743v78.416c-9.78,3.456-16.787,12.776-16.787,23.743
			c0,13.91,11.27,25.18,25.18,25.18h268.59c13.91,0,25.18-11.27,25.18-25.18c0-10.966-7.007-20.287-16.787-23.743v-78.416
			c9.78-3.456,16.787-12.776,16.787-23.743s-7.007-20.287-16.787-23.743v-43.815C383.653,283.194,401.694,275.54,415.924,261.99z
			 M404.348,249.833c-13.098,12.472-30.293,18.721-47.499,18.752h-0.129c-2.204,0-4.397-0.103-6.572-0.303
			c-0.372-0.034-0.743-0.087-1.114-0.127c-0.701-0.076-1.402-0.148-2.099-0.244c-0.572-0.079-1.141-0.181-1.711-0.274
			c-0.494-0.081-0.99-0.152-1.481-0.243c-0.669-0.124-1.333-0.272-1.998-0.415c-0.39-0.084-0.783-0.158-1.171-0.248
			c-0.707-0.165-1.408-0.354-2.11-0.541c-0.344-0.092-0.691-0.173-1.033-0.27c-0.71-0.201-1.413-0.426-2.117-0.649
			c-0.331-0.105-0.665-0.2-0.994-0.31c-0.69-0.23-1.372-0.485-2.055-0.737c-0.338-0.125-0.68-0.24-1.016-0.371
			c-0.657-0.255-1.306-0.533-1.956-0.808c-0.354-0.15-0.713-0.29-1.065-0.446c-0.619-0.274-1.228-0.572-1.84-0.865
			c-0.374-0.18-0.753-0.349-1.124-0.536c-0.584-0.293-1.158-0.609-1.734-0.919c-0.387-0.208-0.779-0.407-1.161-0.623
			c-0.561-0.317-1.111-0.656-1.665-0.989c-0.385-0.232-0.776-0.454-1.156-0.694c-0.548-0.345-1.084-0.714-1.623-1.076
			c-0.373-0.251-0.752-0.491-1.121-0.749c-0.555-0.389-1.097-0.803-1.643-1.21c-0.338-0.253-0.682-0.494-1.016-0.753
			c-0.596-0.464-1.177-0.952-1.76-1.438c-0.269-0.225-0.547-0.438-0.813-0.667c-0.676-0.582-1.336-1.191-1.993-1.804
			c-0.16-0.149-0.327-0.289-0.486-0.44c-0.837-0.797-1.648-1.612-2.433-2.443c-0.075-0.08-0.144-0.163-0.219-0.243
			c-0.709-0.758-1.403-1.526-2.068-2.31c-0.056-0.066-0.108-0.135-0.164-0.201c-0.681-0.808-1.344-1.627-1.978-2.461
			c-0.02-0.026-0.037-0.052-0.057-0.077c-8.839-11.649-13.171-25.735-12.439-40.13l0.005-0.088
			c0.546-10.417,3.764-20.531,9.471-29.511l0.065-0.102c2.871-4.496,6.115-8.497,9.818-12.023l10.326-10.331l37.301-37.316
			L404.2,160.1C430.377,185.038,430.377,225.048,404.348,249.833z M309.81,271.655c0.442,0.286,0.883,0.574,1.33,0.851
			c0.686,0.425,1.38,0.833,2.077,1.237c0.414,0.241,0.824,0.489,1.242,0.722c0.942,0.526,1.896,1.03,2.856,1.519
			c0.222,0.113,0.442,0.232,0.666,0.343c1.078,0.537,2.169,1.05,3.268,1.541c0.405,0.181,0.815,0.346,1.222,0.52
			c0.769,0.329,1.539,0.654,2.317,0.96c0.461,0.181,0.926,0.351,1.39,0.524c0.737,0.275,1.476,0.544,2.221,0.799
			c0.479,0.164,0.959,0.321,1.44,0.476c0.745,0.24,1.492,0.47,2.244,0.69c0.478,0.14,0.956,0.279,1.436,0.41
			c0.773,0.212,1.551,0.409,2.331,0.6c0.461,0.113,0.92,0.229,1.383,0.335c0.836,0.19,1.677,0.36,2.52,0.526
			c0.409,0.08,0.816,0.17,1.226,0.244c1.057,0.192,2.119,0.36,3.185,0.513c0.198,0.029,0.394,0.066,0.592,0.093
			c1.186,0.162,2.377,0.301,3.572,0.415v42.371H96.524V209.839h176.411c0.751,11.963,4.288,23.795,10.603,34.541
			c0.015,0.026,0.031,0.053,0.046,0.079c0.571,0.969,1.164,1.929,1.78,2.879c0.11,0.171,0.223,0.34,0.334,0.51
			c0.551,0.835,1.115,1.663,1.701,2.483c0.203,0.285,0.413,0.566,0.62,0.848c0.527,0.717,1.06,1.431,1.614,2.136
			c0.307,0.39,0.627,0.773,0.942,1.158c0.491,0.6,0.979,1.202,1.49,1.792c0.448,0.517,0.916,1.022,1.379,1.53
			c0.417,0.457,0.822,0.919,1.251,1.369c0.854,0.896,1.734,1.776,2.636,2.641c0.064,0.061,0.122,0.125,0.186,0.186
			c0.039,0.038,0.081,0.072,0.121,0.109c0.914,0.867,1.847,1.709,2.795,2.531c0.326,0.283,0.661,0.552,0.991,0.829
			c0.67,0.563,1.344,1.12,2.029,1.66c0.4,0.315,0.805,0.62,1.209,0.927c0.632,0.479,1.268,0.951,1.912,1.411
			c0.433,0.309,0.868,0.615,1.305,0.915C308.516,270.81,309.161,271.235,309.81,271.655z M96.524,83.934h251.803v13.309
			l-40.147,40.172l-10.812,10.817c-3.687,3.512-6.937,7.284-9.796,11.24H96.524V83.934z M88.133,176.262h190.188
			c-2.178,5.449-3.727,11.077-4.618,16.787H88.133c-4.639,0-8.393-3.754-8.393-8.393C79.739,180.017,83.493,176.262,88.133,176.262z
			 M205.638,16.787h33.574v16.787h-33.574V16.787z M88.13,50.361h100.721h67.148H356.72c4.639,0,8.393,3.754,8.393,8.393
			c0,4.622-3.727,8.363-8.343,8.391H88.079c-4.615-0.028-8.343-3.769-8.343-8.391C79.737,54.115,83.491,50.361,88.13,50.361z
			 M348.327,453.246H96.524v-75.541h251.803V453.246z M356.72,486.82H88.13c-4.639,0-8.393-3.754-8.393-8.393
			c0-4.639,3.754-8.393,8.393-8.393h268.59c4.639,0,8.393,3.754,8.393,8.393C365.114,483.065,361.359,486.82,356.72,486.82z
			 M356.72,360.918H88.13c-4.639,0-8.393-3.754-8.393-8.393c0-4.617,3.719-8.354,8.327-8.39h268.723
			c4.608,0.036,8.327,3.773,8.327,8.39C365.114,357.164,361.359,360.918,356.72,360.918z"/>
	</g>
</g>
<g>
</g>
<g>
</g>
<g>
</g>
<g>
</g>
<g>
</g>
<g>
</g>
<g>
</g>
<g>
</g>
<g>
</g>
<g>
</g>
<g>
</g>
<g>
</g>
<g>
</g>
<g>
</g>
<g>
</g>
</svg>
